<?xml version="1.0"?>
<svg xmlns="http://www.w3.org/2000/svg" height="512px" viewBox="0 0 512 512" width="512px" class=""><g><path d="m211 377.976562 92.960938-61.976562-92.960938-61.976562zm0 0" data-original="#000000" class="active-path" data-old_color="#000000" fill="#FFFFFF"/><path d="m497 120h-482c-8.289062 0-15 6.710938-15 15v362c0 8.289062 6.710938 15 15 15h482c8.289062 0 15-6.710938 15-15v-362c0-8.289062-6.710938-15-15-15zm-157.679688 208.480469-135 90c-4.644531 3.097656-10.582031 3.332031-15.394531.746093-4.878906-2.605468-7.925781-7.691406-7.925781-13.226562v-180c0-5.535156 3.046875-10.621094 7.925781-13.226562 4.863281-2.609376 10.796875-2.332032 15.394531.746093l135 90c4.175782 2.78125 6.679688 7.46875 6.679688 12.480469 0 5.007812-2.503906 9.695312-6.679688 12.480469zm0 0" data-original="#000000" class="active-path" data-old_color="#000000" fill="#FFFFFF"/><path d="m482 75c0-8.289062-6.710938-15-15-15h-422c-8.289062 0-15 6.710938-15 15v15h452zm0 0" data-original="#000000" class="active-path" data-old_color="#000000" fill="#FFFFFF"/><path d="m452 15c0-8.289062-6.710938-15-15-15h-362c-8.289062 0-15 6.710938-15 15v15h392zm0 0" data-original="#000000" class="active-path" data-old_color="#000000" fill="#FFFFFF"/></g> </svg>
