<?xml version="1.0" encoding="utf-8"?>
<!-- Generator: Adobe Illustrator 24.0.0, SVG Export Plug-In . SVG Version: 6.00 Build 0)  -->
<svg version="1.1" id="Layer_1" xmlns="http://www.w3.org/2000/svg" xmlns:xlink="http://www.w3.org/1999/xlink" x="0px" y="0px"
	 viewBox="0 0 72 72" style="enable-background:new 0 0 72 72;" xml:space="preserve">
<style type="text/css">
	.st0{fill:#03AA6F;}
	.st1{fill:#86DAF1;}
	.st2{fill:#FFFFFF;filter:url(#Adobe_OpacityMaskFilter);}
	.st3{mask:url(#path-10-inside-1_1_);}
</style>
<path d="M17.7,28.4h-2.2c-2.5,0-4.5,2-4.5,4.5v22.3c0,2.5,2,4.5,4.5,4.5h2.2c1.2,0,2.2-1,2.2-2.2V30.6
	C19.9,29.4,18.9,28.4,17.7,28.4z"/>
<path d="M56,28.4h-2.2c-1.2,0-2.2,1-2.2,2.2v26.8c0,1.2,1,2.2,2.2,2.2H56c2.5,0,4.5-2,4.5-4.5V32.8C60.4,30.4,58.4,28.4,56,28.4z"/>
<path class="st0" d="M56,24l-2.8,2l-4.7-1l-2.8-1l-3.8,1L39,24l1.9-4h3.8l3.7-2C51.2,19.5,53.8,21.5,56,24z"/>
<path class="st0" d="M34,19.8l-1,2.9l-2.9,1l-2.9,4.8l-4.9,2.9l-6.8,1v2.9l1.9,1.9V41l-2.9-1.9l-2.9-1.9l-1.7-5
	c2.9-6.9,8.5-12.3,15.4-15.1l2.8,1.8L34,19.8z"/>
<path class="st0" d="M36,46.7l-1,4.8l-3.8,3.9v2.9l-3.8,2.9V66l-2.9-1l-1.9-4.8v-9.7l-4.8-1L16,45.7v-2.9l1.9-1.9l2.9-2.9l1.9,3.9
	h6.7l2.9,4.8H36z"/>
<path class="st0" d="M60.4,29.8c5.3,9.5,4.7,21.3-1.5,30.2l-2.6-2.6v-3.9l-1.9-3.9l-1.9-3.9v-3.9l-2.9-2l-3.9,1L39,37.8l-1-6.9
	l2.9-2.9h5.8l1.9,2.9l5.8,1l5.8-2L60.4,29.8z"/>
<path class="st1" d="M41.5,24.7l3.8-1l2.9,1l4.8,1l2.9-1.9c1.6,1.7,3,3.6,4.1,5.6l-0.3,0.2L54,31.4l-5.7-1l-1.9-2.9h-5.7l-2.9,2.9
	l1,6.8l6.7,2.9l3.8-1l2.9,1.9v3.9l1.9,3.9l1.9,3.9v3.9l2.6,2.6c-8.8,12.6-26.2,15.7-38.7,6.7C9.1,58.3,5.1,44.3,10.2,32.2l1.7,5.1
	l2.9,1.9l2.9,1.9L15.7,43v2.9l1.9,3.9l4.8,1v9.7l1.9,4.8l2.9,1v-4.8l3.8-2.9v-2.9l3.8-3.9l1-4.8h-3.8L29.1,42h-6.7l-1.9-3.9
	l-2.9,2.9v-3.9l-1.9-1.9v-2.9l6.7-1l4.8-2.9l2.9-4.8l2.9-1l1-2.9l-5.7-1L25.4,17c7.4-3,15.6-2.7,22.8,0.9l-3.8,1.9h-3.8l-1.9,3.9
	L41.5,24.7z"/>
<path d="M36,72c16,0,29-13,29-29c0-16-13-29-29-29c-11.6,0-22.1,6.9-26.7,17.6l0,0.2l-0.3,0.4c-6,14.8,1.1,31.7,16,37.8
	C28.6,71.3,32.3,72,36,72z M58.8,57.6l-1.5-1.5v-3.5c0-0.1,0-0.3-0.1-0.4l-3.8-7.5v-3.6c0-0.3-0.2-0.6-0.4-0.8l-2.9-1.9
	c-0.2-0.2-0.5-0.2-0.8-0.1l-3.6,0.9l-6-2.6L39,30.8l2.3-2.3h4.9l1.6,2.5c0.1,0.2,0.4,0.4,0.6,0.4l5.8,1c0.2,0,0.3,0,0.5,0l5.3-1.8
	C64.5,39.1,64,49.5,58.8,57.6L58.8,57.6z M54.8,23.5l-1.6,1l-4.4-0.9L46,22.8c-0.2-0.1-0.4-0.1-0.5,0l-3.6,0.9l-1.6-0.5l1.2-2.3h3.3
	c0.1,0,0.3,0,0.4-0.1l3.3-1.7C50.8,20.2,52.9,21.7,54.8,23.5z M25.4,18.1l2.3,1.5c0.1,0.1,0.2,0.1,0.4,0.1l4.7,0.8l-0.5,1.4
	l-2.4,0.8c-0.2,0.1-0.4,0.2-0.5,0.4l-2.8,4.6l-4.5,2.7l-6.6,0.9c-0.5,0.1-0.8,0.5-0.8,1v2.9c0,0.3,0.1,0.5,0.3,0.7l1.6,1.7v1.7
	l-4-2.7l-1.5-4.4C14,25.9,19.1,20.8,25.4,18.1z M22.7,49.8l-4.4-0.9l-1.6-3.2v-2.3l3.6-3.6l1.3,2.7c0.2,0.3,0.5,0.5,0.9,0.5h6.2
	l2.6,4.4c0.2,0.3,0.5,0.5,0.8,0.5h2.7l-0.7,3.4l-3.7,3.7c-0.2,0.2-0.3,0.4-0.3,0.7V58l-3.5,2.6c-0.2,0.2-0.4,0.5-0.4,0.8v3.5
	l-1.2-0.4l-1.7-4.2v-9.5C23.4,50.3,23.1,49.9,22.7,49.8z M10.1,35.1l0.8,2.4c0.1,0.2,0.2,0.4,0.4,0.5l4.8,3.2L15,42.3
	c-0.2,0.2-0.3,0.4-0.3,0.7v2.9c0,0.1,0,0.3,0.1,0.4l1.9,3.9c0.1,0.3,0.4,0.5,0.7,0.5l4.1,0.8v8.9c0,0.1,0,0.2,0.1,0.4l1.9,4.8
	c0.1,0.3,0.3,0.5,0.6,0.6l2.9,1c0.1,0,0.2,0.1,0.3,0.1c0.5,0,1-0.4,1-1v-4.4l3.5-2.6c0.2-0.2,0.4-0.5,0.4-0.8V56l3.6-3.6
	c0.1-0.1,0.2-0.3,0.3-0.5l1-4.8c0.1-0.5-0.2-1-0.8-1.1c-0.1,0-0.1,0-0.2,0h-3.3l-2.6-4.4c-0.2-0.3-0.5-0.5-0.8-0.5h-6.2l-1.7-3.3
	c-0.1-0.3-0.4-0.5-0.7-0.5c-0.3-0.1-0.6,0-0.8,0.3l-1.3,1.2v-1.5c0-0.3-0.1-0.5-0.3-0.7l-1.6-1.6v-1.7l5.9-0.8
	c0.1,0,0.3-0.1,0.4-0.1l4.8-2.9c0.1-0.1,0.2-0.2,0.3-0.3l2.7-4.5l2.6-0.9c0.3-0.1,0.5-0.3,0.6-0.6l1-2.9c0.2-0.5-0.1-1.1-0.6-1.2
	c0,0-0.1,0-0.1,0l-5.6-0.9l-1-0.7c6.1-2,12.7-1.7,18.6,0.7l-1.8,0.9h-3.6c-0.4,0-0.7,0.2-0.9,0.5L38,23.2c-0.2,0.5,0,1.1,0.4,1.3
	c0,0,0.1,0,0.1,0.1l2.9,1c0.2,0.1,0.4,0.1,0.5,0l3.6-0.9l2.6,0.9c0,0,0.1,0,0.1,0l4.8,1c0.3,0.1,0.5,0,0.7-0.1l2.2-1.5
	c1.1,1.2,2.1,2.5,2.9,3.9l-4.8,1.6l-5.1-0.9L47.4,27c-0.2-0.3-0.5-0.4-0.8-0.4h-5.8c-0.3,0-0.5,0.1-0.7,0.3l-2.9,2.9
	C37,30,36.9,30.3,37,30.6l1,6.8c0,0.3,0.3,0.6,0.6,0.8l6.8,2.9c0.2,0.1,0.4,0.1,0.6,0l3.5-0.9l2.1,1.4v3.3c0,0.1,0,0.3,0.1,0.4
	l3.8,7.5v3.6c0,0.3,0.1,0.5,0.3,0.7l2,2c-9,12-25.9,14.4-37.9,5.4C10.6,57.8,6.8,46,10.1,35.1z"/>
<defs>
	<filter id="Adobe_OpacityMaskFilter" filterUnits="userSpaceOnUse" x="-25" y="-22" width="122" height="88">
		<feColorMatrix  type="matrix" values="1 0 0 0 0  0 1 0 0 0  0 0 1 0 0  0 0 0 1 0"/>
	</filter>
</defs>
<mask maskUnits="userSpaceOnUse" x="-25" y="-22" width="122" height="88" id="path-10-inside-1_1_">
	<path class="st2" d="M66,39C66,22.4,52.6,9,36,9S6,22.4,6,39H2C2,20.2,17.2,5,36,5s34,15.2,34,34H66z"/>
</mask>
<path class="st3" d="M66,39H39v27h27V39z M6,39v27h27V39H6z M70,39v27h27V39H70z M2,39h-27v27H2V39z M36,36c1.6,0,3,1.3,3,3h54
	c0-31.5-25.5-57-57-57V36z M33,39c0-1.6,1.3-3,3-3v-54C4.5-18-21,7.5-21,39H33z M36,32c3.9,0,7,3.1,7,7h54c0-33.7-27.3-61-61-61V32z
	 M29,39c0-3.9,3.1-7,7-7v-54C2.3-22-25,5.3-25,39H29z M2,66h4V12H2V66z M70,12h-4v54h4V12z"/>
<path d="M0,49.1V35.7l5.5-2.3C6.4,33.2,7.3,33,8.2,33H11v23H8.2C3.7,56,0,52.9,0,49.1z"/>
<path d="M72,49.4V36.6l-5.5-2.2c-0.9-0.2-1.8-0.4-2.8-0.4H61v22h2.8C68.3,56,72,53,72,49.4z"/>
</svg>
