<svg id="Layer_1" data-name="Layer 1" xmlns="http://www.w3.org/2000/svg" xmlns:xlink="http://www.w3.org/1999/xlink" viewBox="0 0 640 640"><defs><style>.cls-1{fill:#fff;}.cls-2{fill:#293646;}.cls-3{fill:#4d5156;}.cls-4{fill:#656b72;}.cls-5{fill:#707984;}.cls-6{mask:url(#mask);}.cls-7{opacity:0.71;}</style><mask id="mask" x="65.15" y="71.85" width="510" height="282" maskUnits="userSpaceOnUse"><g id="path-10-inside-1"><path class="cls-1" d="M521.15,326.85c0-111-90-201-201-201s-201,90-201,201h-27c0-125.92,102.08-228,228-228s228,102.08,228,228Z"/></g></mask></defs><title>noSongPlaying</title><rect class="cls-2" width="640" height="640"/><path d="M198.15,255.85h-15a30,30,0,0,0-30,30v150a30,30,0,0,0,30,30h15a15,15,0,0,0,15-15v-180A15,15,0,0,0,198.15,255.85Z"/><path d="M455.15,255.85h-15a15,15,0,0,0-15,15v180a15,15,0,0,0,15,15h15a30,30,0,0,0,30-30v-150A30,30,0,0,0,455.15,255.85Z"/><path class="cls-3" d="M455.79,225.67l-19.45,13-32.41-6.48-19.44-6.48-25.93,6.48-19.45-6.48,13-25.93H378L403.41,187A185.81,185.81,0,0,1,455.79,225.67Z"/><path class="cls-3" d="M306.7,199.74l-6.48,19.45-19.45,6.48-19.44,32.41-32.41,19.45L183.54,284v19.45l13,13v25.93l-19.45-13-19.44-13-11.28-33.9A187.87,187.87,0,0,1,249.4,180.94l18.41,12.32Z"/><polygon class="cls-3" points="319.67 381.24 313.19 413.65 287.26 439.58 287.26 459.02 261.33 478.47 261.33 510.88 241.88 504.4 228.92 471.99 228.92 407.17 196.51 400.69 183.54 374.76 183.54 355.31 196.51 342.35 215.96 322.9 228.92 348.83 274.29 348.83 293.74 381.24 319.67 381.24"/><path class="cls-3" d="M483.66,263.46a187.8,187.8,0,0,1-10.37,200.1l-17.5-17.5V420.13l-13-25.93-13-25.92V342.35l-19.45-13-25.92,6.49-45.38-19.45-6.48-45.37,19.45-19.45H391l13,19.45,38.9,6.48,38.89-13Z"/><path class="cls-4" d="M358.65,232.49,384.54,226,404,232.49,436.33,239,455.75,226a184.63,184.63,0,0,1,27.84,37.72l-1.94,1.1-38.84,12.94L404,271.31,391,251.9H352.18l-19.43,19.41,6.48,45.28L384.54,336l25.9-6.47,19.42,12.94v25.88l12.94,25.88,12.95,25.88V446l17.48,17.47C413.45,548.11,296.31,568.3,211.6,508.56a187.56,187.56,0,0,1-64.9-225.8L158,316.59l19.42,12.94,19.42,12.94-12.95,12.94v19.41l12.95,25.88,32.37,6.47v64.7l12.94,32.34,19.42,6.47V478.34l25.9-19.41V439.52l25.89-25.88,6.48-32.35h-25.9l-19.42-32.35H229.18l-13-25.88-19.42,19.41V316.59l-12.95-12.93V284.25l45.32-6.47,32.37-19.41L281,226l19.42-6.47,6.47-19.41L268,193.67l-18.39-12.29a187.88,187.88,0,0,1,153.82,6.08l-25.38,12.68H352.18L339.23,226Z"/><path class="cls-5" d="M319.67,549.85c107.4,0,194.47-87.05,194.48-194.47s-87-194.51-194.42-194.53a194.48,194.48,0,0,0-178.8,118l.22,1.05-1.7,2.57c-40.33,99.49,7.61,212.85,107.08,253.19A194.39,194.39,0,0,0,319.67,549.85Zm152.6-96.42-10-10V420.18a6.43,6.43,0,0,0-.65-2.89l-25.28-50.5V342.38a6.5,6.5,0,0,0-2.88-5.39L414,324a6.49,6.49,0,0,0-5.18-.89L385,329.08l-40-17.17-5.5-38.56,15.25-15.25H387.5l11,16.57a6.47,6.47,0,0,0,4.33,2.79l38.89,6.48a6.42,6.42,0,0,0,3.11-.24l35.82-11.94a180.91,180.91,0,0,1-8.42,181.67ZM445.52,224.74l-10.54,7-29.38-5.89-19.06-6.34a6.29,6.29,0,0,0-3.62-.14l-24.1,6-10.57-3.52,7.83-15.67H378a6.47,6.47,0,0,0,2.9-.68l22.43-11.21A181.76,181.76,0,0,1,445.52,224.74ZM248.67,188.29l15.56,10.38a6.55,6.55,0,0,0,2.53,1l31.41,5.24-3.06,9.17-16.37,5.46a6.52,6.52,0,0,0-3.51,2.81l-18.61,31-29.91,17.95-44.07,6.29a6.5,6.5,0,0,0-5.58,6.41v19.45a6.47,6.47,0,0,0,1.9,4.59L190,319.14v11.13l-27-18-9.78-29.35A182.58,182.58,0,0,1,248.67,188.29ZM230.21,400.86,200.92,395,190,373.27V358l24.15-24.15,8.94,17.89a6.48,6.48,0,0,0,5.8,3.58h41.7l17.56,29.27a6.5,6.5,0,0,0,5.56,3.15h18l-4.54,22.73-24.54,24.55a6.47,6.47,0,0,0-1.91,4.58v16.21l-23.33,17.51a6.47,6.47,0,0,0-2.59,5.18V502l-8.07-2.67L235.4,470.8V407.22A6.5,6.5,0,0,0,230.21,400.86Zm-84.13-98.52,5.39,16.16a6.48,6.48,0,0,0,2.55,3.34l32.31,21.55L179,350.77a6.45,6.45,0,0,0-1.9,4.58V374.8a6.61,6.61,0,0,0,.68,2.9l13,25.93a6.48,6.48,0,0,0,4.53,3.46l27.23,5.44v59.52a6.45,6.45,0,0,0,.46,2.41l13,32.41a6.49,6.49,0,0,0,4,3.74l19.44,6.49a6.29,6.29,0,0,0,2,.33,6.48,6.48,0,0,0,6.48-6.48V481.78l23.34-17.51a6.47,6.47,0,0,0,2.59-5.18V442.32l24-24a6.53,6.53,0,0,0,1.77-3.32L326,382.56a6.49,6.49,0,0,0-5.09-7.64,6.64,6.64,0,0,0-1.26-.12H297.41l-17.56-29.27a6.5,6.5,0,0,0-5.56-3.15H232.92L221.79,320a6.47,6.47,0,0,0-4.77-3.5,6.35,6.35,0,0,0-5.62,1.81L203,326.73V316.45a6.45,6.45,0,0,0-1.9-4.58L190,300.8V289.65L229.84,284a6.56,6.56,0,0,0,2.42-.86l32.41-19.45a6.52,6.52,0,0,0,2.21-2.22l18.22-30.36,17.17-5.73a6.44,6.44,0,0,0,4.1-4.1l6.48-19.45a6.48,6.48,0,0,0-4.12-8.19,8.42,8.42,0,0,0-1-.24l-37.52-6.26-6.59-4.39a181,181,0,0,1,124.66,4.63l-11.85,5.92H352.08a6.47,6.47,0,0,0-5.84,3.58l-13,25.94a6.47,6.47,0,0,0,2.91,8.69,6.78,6.78,0,0,0,.84.35l19.45,6.48a6.38,6.38,0,0,0,3.62.15l24.1-6,17.65,5.88a4.51,4.51,0,0,0,.78.21L435,245a6.44,6.44,0,0,0,4.87-1l14.75-9.85a183.33,183.33,0,0,1,19.5,26.06l-31.89,10.63-34.53-5.75L396.33,248a6.46,6.46,0,0,0-5.36-2.88H352.08a6.52,6.52,0,0,0-4.59,1.89l-19.44,19.46a6.46,6.46,0,0,0-1.84,5.5l6.49,45.38a6.46,6.46,0,0,0,3.89,5L382,341.86a6.41,6.41,0,0,0,4.12.33l23.15-5.79,14.15,9.45v22.47a6.5,6.5,0,0,0,.65,2.9l25.28,50.49v24.41a6.45,6.45,0,0,0,1.9,4.58l13.56,13.57c-60.14,80.18-173.88,96.42-254,36.26A181.52,181.52,0,0,1,146.08,302.34Z"/><g class="cls-6"><path class="cls-5" d="M521.15,326.85h-27v27h27Zm-402,0v27h27v-27Zm429,0v27h27v-27Zm-456,0h-27v27h27Zm228-174a174,174,0,0,1,174,174h54c0-125.92-102.08-228-228-228Zm-174,174a174,174,0,0,1,174-174v-54c-125.92,0-228,102.08-228,228Zm174-201c111,0,201,90,201,201h54c0-140.83-114.16-255-255-255Zm-201,201c0-111,90-201,201-201v-54c-140.83,0-255,114.17-255,255Zm-27,27h27v-54h-27Zm456-54h-27v54h27Z"/></g><path class="cls-5" d="M79.15,395.61V307.88l37.32-15.25a67.05,67.05,0,0,1,18.66-2.78h18.65V440.94H135.13C104.26,440.94,79.15,420.61,79.15,395.61Z"/><path class="cls-5" d="M560.78,400.61V312.88l-37.32-15.25a67,67,0,0,0-18.65-2.78H486.15V445.94h18.66C535.67,445.94,560.78,425.61,560.78,400.61Z"/><g class="cls-7"><rect class="cls-2" width="640" height="640"/></g></svg>